<!-- Generated by IcoMoon.io -->
<svg version="1.1" xmlns="http://www.w3.org/2000/svg" width="32" height="32" viewBox="0 0 32 32">
<title>graphic</title>
<path d="M6.667 4h18.667c1.473 0 2.667 1.194 2.667 2.667v18.667c0 1.473-1.194 2.667-2.667 2.667h-18.667c-1.473 0-2.667-1.194-2.667-2.667v-18.667c0-1.473 1.194-2.667 2.667-2.667zM23.636 14.222c0.933 0 1.697-0.8 1.697-1.778s-0.764-1.778-1.697-1.778-1.697 0.8-1.697 1.778c0 0.16 0.017 0.311 0.059 0.453l-3.012 3.165c-0.136-0.045-0.289-0.062-0.441-0.062s-0.305 0.018-0.441 0.062l-2.164-2.267c0.042-0.142 0.059-0.302 0.059-0.462 0-0.978-0.764-1.778-1.697-1.778s-1.697 0.8-1.697 1.778c0 0.16 0.017 0.32 0.059 0.462l-3.869 4.044c-0.136-0.044-0.28-0.062-0.433-0.062-0.933 0-1.697 0.8-1.697 1.778s0.764 1.778 1.697 1.778 1.697-0.8 1.697-1.778c0-0.16-0.017-0.311-0.059-0.453l3.861-4.053c0.136 0.044 0.288 0.062 0.441 0.062s0.305-0.018 0.441-0.062l2.164 2.267c-0.042 0.142-0.059 0.302-0.059 0.462 0 0.978 0.764 1.778 1.697 1.778s1.697-0.8 1.697-1.778c0-0.16-0.017-0.32-0.059-0.462l3.021-3.156c0.136 0.044 0.28 0.062 0.433 0.062z"></path>
</svg>
