<!-- Generated by IcoMoon.io -->
<svg version="1.1" xmlns="http://www.w3.org/2000/svg" width="77" height="32" viewBox="0 0 77 32">
<title>logo</title>
<path fill="#fbfbfb" d="M8.936 19.758v7.887h-1.037v-5.881l-2.622 5.881h-0.729l-2.633-5.893v5.893h-1.037v-7.887h1.117l2.918 6.52 2.918-6.52h1.106zM13.419 27.748c-0.585 0-1.117-0.133-1.596-0.399-0.471-0.266-0.843-0.642-1.117-1.128-0.266-0.494-0.399-1.064-0.399-1.71 0-0.638 0.137-1.201 0.41-1.687 0.281-0.494 0.661-0.87 1.14-1.128 0.479-0.266 1.014-0.399 1.607-0.399s1.128 0.133 1.607 0.399c0.479 0.258 0.855 0.631 1.128 1.117 0.281 0.486 0.422 1.052 0.422 1.698s-0.144 1.216-0.433 1.71c-0.281 0.486-0.665 0.862-1.151 1.128s-1.026 0.399-1.619 0.399zM13.419 26.836c0.372 0 0.722-0.087 1.049-0.262s0.589-0.437 0.786-0.786c0.205-0.35 0.308-0.775 0.308-1.277s-0.099-0.927-0.296-1.277c-0.198-0.35-0.456-0.608-0.775-0.775-0.319-0.175-0.665-0.262-1.037-0.262-0.38 0-0.729 0.087-1.049 0.262-0.312 0.167-0.562 0.426-0.752 0.775s-0.285 0.775-0.285 1.277c0 0.509 0.091 0.938 0.274 1.288 0.19 0.35 0.441 0.612 0.752 0.786 0.312 0.167 0.653 0.251 1.026 0.251zM21.029 21.285c0.76 0 1.375 0.232 1.846 0.695 0.471 0.456 0.707 1.117 0.707 1.983v3.682h-1.026v-3.533c0-0.623-0.156-1.098-0.467-1.425-0.312-0.334-0.737-0.502-1.277-0.502-0.547 0-0.984 0.171-1.311 0.513-0.319 0.342-0.479 0.84-0.479 1.493v3.454h-1.037v-6.246h1.037v0.889c0.205-0.319 0.482-0.566 0.832-0.741 0.357-0.175 0.748-0.262 1.174-0.262zM30.975 24.283c0 0.198-0.011 0.407-0.034 0.627h-4.992c0.038 0.615 0.247 1.098 0.627 1.448 0.388 0.342 0.855 0.513 1.402 0.513 0.448 0 0.821-0.103 1.117-0.308 0.304-0.213 0.517-0.494 0.638-0.843h1.117c-0.167 0.6-0.502 1.090-1.003 1.47-0.501 0.372-1.125 0.559-1.869 0.559-0.593 0-1.125-0.133-1.596-0.399-0.464-0.266-0.828-0.642-1.094-1.128-0.266-0.494-0.399-1.064-0.399-1.71s0.129-1.212 0.388-1.698c0.258-0.486 0.619-0.859 1.083-1.117 0.471-0.266 1.011-0.399 1.618-0.399 0.593 0 1.117 0.129 1.573 0.388s0.805 0.616 1.049 1.071c0.251 0.448 0.376 0.957 0.376 1.527zM29.904 24.066c0-0.395-0.087-0.733-0.262-1.014-0.175-0.289-0.414-0.505-0.718-0.65-0.296-0.152-0.627-0.228-0.992-0.228-0.524 0-0.973 0.167-1.345 0.502-0.365 0.334-0.574 0.798-0.627 1.391h3.944zM37.724 21.399l-3.761 9.187h-1.071l1.231-3.009-2.519-6.178h1.151l1.96 5.061 1.938-5.061h1.071zM47.824 22.003c-0.22-0.463-0.539-0.821-0.957-1.071-0.418-0.258-0.904-0.388-1.459-0.388s-1.056 0.129-1.505 0.388c-0.441 0.251-0.79 0.616-1.049 1.094-0.251 0.471-0.376 1.018-0.376 1.641s0.125 1.17 0.376 1.641c0.258 0.471 0.608 0.836 1.049 1.094 0.448 0.251 0.95 0.376 1.505 0.376 0.775 0 1.413-0.232 1.915-0.695s0.794-1.090 0.878-1.881h-3.169v-0.843h4.274v0.798c-0.061 0.653-0.266 1.254-0.615 1.801-0.35 0.539-0.809 0.969-1.379 1.288-0.57 0.312-1.204 0.467-1.903 0.467-0.737 0-1.41-0.171-2.017-0.513-0.608-0.35-1.090-0.832-1.448-1.448-0.35-0.615-0.524-1.311-0.524-2.086s0.175-1.47 0.524-2.086c0.357-0.623 0.84-1.106 1.448-1.448 0.608-0.35 1.28-0.524 2.017-0.524 0.843 0 1.588 0.209 2.234 0.627 0.653 0.418 1.128 1.007 1.425 1.767h-1.242zM56.216 21.399v6.246h-1.037v-0.923c-0.198 0.319-0.475 0.57-0.832 0.752-0.35 0.175-0.737 0.262-1.163 0.262-0.486 0-0.923-0.099-1.311-0.296-0.388-0.205-0.695-0.509-0.923-0.912-0.22-0.403-0.331-0.893-0.331-1.47v-3.659h1.026v3.522c0 0.615 0.156 1.090 0.467 1.425 0.312 0.327 0.737 0.49 1.277 0.49 0.555 0 0.992-0.171 1.311-0.513s0.479-0.84 0.479-1.493v-3.431h1.037zM57.58 24.5c0-0.638 0.129-1.197 0.388-1.676 0.258-0.486 0.612-0.862 1.060-1.128 0.456-0.266 0.961-0.399 1.516-0.399 0.547 0 1.022 0.118 1.425 0.353s0.703 0.532 0.9 0.889v-1.14h1.049v6.246h-1.049v-1.163c-0.205 0.365-0.513 0.669-0.923 0.912-0.403 0.236-0.874 0.353-1.413 0.353-0.555 0-1.056-0.137-1.505-0.41s-0.802-0.657-1.060-1.151c-0.258-0.494-0.388-1.056-0.388-1.687zM62.869 24.511c0-0.471-0.095-0.881-0.285-1.231s-0.448-0.615-0.775-0.798c-0.319-0.19-0.672-0.285-1.060-0.285s-0.741 0.091-1.060 0.274c-0.319 0.182-0.574 0.448-0.764 0.798s-0.285 0.76-0.285 1.231c0 0.479 0.095 0.897 0.285 1.254 0.19 0.35 0.445 0.619 0.764 0.809 0.319 0.182 0.672 0.274 1.060 0.274s0.741-0.091 1.060-0.274c0.327-0.19 0.585-0.46 0.775-0.809 0.19-0.357 0.285-0.771 0.285-1.242zM66.707 22.414c0.183-0.357 0.441-0.634 0.775-0.832 0.341-0.198 0.756-0.296 1.242-0.296v1.071h-0.273c-1.163 0-1.744 0.631-1.744 1.892v3.397h-1.037v-6.246h1.037v1.014zM69.535 24.5c0-0.638 0.129-1.197 0.387-1.676 0.259-0.486 0.612-0.862 1.060-1.128 0.456-0.266 0.965-0.399 1.527-0.399 0.487 0 0.939 0.114 1.357 0.342 0.418 0.22 0.737 0.513 0.957 0.878v-3.305h1.049v8.434h-1.049v-1.174c-0.205 0.372-0.509 0.68-0.912 0.923-0.403 0.236-0.874 0.353-1.413 0.353-0.555 0-1.060-0.137-1.516-0.41-0.448-0.274-0.801-0.657-1.060-1.151s-0.387-1.056-0.387-1.687zM74.823 24.511c0-0.471-0.095-0.881-0.285-1.231s-0.448-0.615-0.775-0.798c-0.319-0.19-0.673-0.285-1.060-0.285s-0.741 0.091-1.060 0.274c-0.319 0.182-0.574 0.448-0.764 0.798s-0.285 0.76-0.285 1.231c0 0.479 0.095 0.897 0.285 1.254 0.19 0.35 0.445 0.619 0.764 0.809 0.319 0.182 0.672 0.274 1.060 0.274s0.741-0.091 1.060-0.274c0.327-0.19 0.585-0.46 0.775-0.809 0.19-0.357 0.285-0.771 0.285-1.242z"></path>
<path fill="#ffb627" d="M41.379 2.059c-1.109-0.265-2.218-0.796-3.049-1.591-0.832 0.796-1.941 1.326-3.049 1.591 0.277 2.387 1.109 3.978 3.049 5.303 1.941-1.326 3.049-2.917 3.049-5.303z"></path>
<path fill="#fbfbfb" d="M40.27 11.933l-7.762-8.751v4.243l6.099 6.629 1.663-2.121z"></path>
<path fill="#fbfbfb" d="M41.102 11.137l3.327-3.712v-3.978l-5.267 5.834 1.941 1.856z"></path>
<path fill="#fbfbfb" d="M41.379 12.463v2.387l3.049-3.447v-2.387l-3.049 3.447z"></path>
<path fill="#fbfbfb" d="M35.557 12.463l-3.049-3.447v2.387l3.049 3.447v-2.387z"></path>
</svg>
